# xmcd
#
# Track frame offsets:
# 150
# 14785
# 26213
# 40204
# 53744
# 68396
# 78886
# 93075
# 107996
# 121359
# 134319
# 149041
# 162683
# 176004
# 188892
# 203684
# 216826
# 230137
# 243821
# 254388
#
# Disc length: 3547 seconds
#
#
# Revision: 2
# Processed by: cddbd v1.5.1PL0 Copyright (c) Steve Scherf et al.
# Submitted via: FreeRIP 2.52 
#
DISCID=240dd914
DTITLE=Sarah Vaughan - Sarah Vaughan in Las Vegas CD 2
DYEAR=2002
DGENRE=Jazz
TTITLE0=Black Coffee
TTITLE1=As You Desire Me
TTITLE2=While Youre Gone
TTITLE3=Just Friends
TTITLE4=You Taught Me to love again
TTITLE5=Lonely Girl
TTITLE6=Youre Mine, You
TTITLE7=The Nearness Of You
TTITLE8=Im Crazy To Love You
TTITLE9=Dont Be Afraid
TTITLE10=Ill Know
TTITLE11=Thinking Of You
TTITLE12=These Things I Offer You
TTITLE13=After Hours
TTITLE14=Just A Moment More
TTITLE15=Time To Go
TTITLE16=Corner To Corner
TTITLE17=Street Of Dreams
TTITLE18=I Confess
TTITLE19=A Blues Serenade
EXTD=
EXTT0=
EXTT1=
EXTT2=
EXTT3=
EXTT4=
EXTT5=
EXTT6=
EXTT7=
EXTT8=
EXTT9=
EXTT10=
EXTT11=
EXTT12=
EXTT13=
EXTT14=
EXTT15=
EXTT16=
EXTT17=
EXTT18=
EXTT19=
PLAYORDER=
